<svg xmlns="http://www.w3.org/2000/svg" viewBox="0 0 64 64">
  <defs>
    <linearGradient id="bg" x1="0%" y1="0%" x2="100%" y2="100%">
      <stop offset="0%" stop-color="#fff7df"/>
      <stop offset="100%" stop-color="#f1e0a8"/>
    </linearGradient>
    <linearGradient id="wheat" x1="0%" y1="0%" x2="0%" y2="100%">
      <stop offset="0%" stop-color="#f3d36c"/>
      <stop offset="100%" stop-color="#d89a2d"/>
    </linearGradient>
    <linearGradient id="stem" x1="0%" y1="0%" x2="0%" y2="100%">
      <stop offset="0%" stop-color="#3f8a46"/>
      <stop offset="100%" stop-color="#1f5b37"/>
    </linearGradient>
  </defs>

  <rect width="64" height="64" rx="18" fill="url(#bg)"/>
  <circle cx="49" cy="16" r="6" fill="#fff4bf" opacity="0.95"/>

  <path d="M32 50V18" stroke="url(#stem)" stroke-width="3.2" stroke-linecap="round"/>
  <path d="M32 38c-4 1.4-6.4 4-7.8 7.7" stroke="url(#stem)" stroke-width="2.4" stroke-linecap="round" fill="none"/>
  <path d="M32 31c3.7 1.1 6.1 3.6 7.7 7.1" stroke="url(#stem)" stroke-width="2.4" stroke-linecap="round" fill="none"/>

  <path d="M32 16c-2.1 0-3.8 1.5-4.4 4 2.1.1 3.8-.5 4.9-1.8 1.1 1.3 2.8 1.9 4.9 1.8-.7-2.5-2.4-4-4.6-4z" fill="url(#wheat)"/>
  <path d="M32 21c-2.5 0-4.5 1.8-5.2 4.7 2.4.2 4.3-.5 5.6-2 1.2 1.5 3.1 2.2 5.5 2-.7-2.9-2.7-4.7-5.9-4.7z" fill="url(#wheat)"/>
  <path d="M32 26c-2.8 0-4.9 2-5.7 5.1 2.6.2 4.6-.5 5.9-2.2 1.3 1.7 3.3 2.4 5.9 2.2-.8-3.1-2.9-5.1-6.1-5.1z" fill="url(#wheat)"/>
  <path d="M32 31c-2.7 0-4.8 1.9-5.6 4.9 2.5.2 4.4-.5 5.7-2 1.3 1.5 3.2 2.2 5.7 2-.8-3-2.8-4.9-5.8-4.9z" fill="url(#wheat)"/>
  <path d="M32 36c-2.4 0-4.2 1.7-5 4.4 2.2.2 4-.4 5.2-1.8 1.2 1.4 2.9 2 5.1 1.8-.7-2.7-2.5-4.4-5.3-4.4z" fill="url(#wheat)"/>

  <path d="M18 48c6-4.5 12.1-6.7 18.4-6.7 6.2 0 11.7 2.2 16.6 6.7" fill="none" stroke="#d6c38a" stroke-width="2" stroke-linecap="round"/>
</svg>
